<?xml version="1.0" encoding="utf-8"?>
<!-- Generator: Adobe Illustrator 27.0.0, SVG Export Plug-In . SVG Version: 6.00 Build 0)  -->
<svg version="1.1" id="Layer_1" xmlns="http://www.w3.org/2000/svg" xmlns:xlink="http://www.w3.org/1999/xlink" x="0px" y="0px"
	 viewBox="0 0 511.8 508.9" style="enable-background:new 0 0 511.8 508.9;" xml:space="preserve">
<style type="text/css">
	.st0{fill:#030202;}
	.st1{fill:#00C300;}
	.st2{fill:#008B00;}
	.st3{fill:#060402;}
</style>
<g>
	<path class="st0" d="M0,396.1c3.3-5.1,8.2-6.5,13.9-6.9c61.9-4.5,123.9-9.2,185.8-13.8c8.6-0.6,17.3-1.4,25.9-1.9
		c2.9-0.1,3.6-1.1,3.5-3.8c-0.2-5.6-0.2-11.3,0-17c0.1-2.5-0.8-3-3.2-2.8c-34.1,2-68.2,3.9-102.3,5.8c-21.4,1.2-42.9,2.4-64.3,3.7
		c-4.5,0.3-8.3-0.7-10.7-4.7c-2.6-4.3-1.3-8.1,1.1-12.1c29.3-47.3,58.5-94.6,87.8-141.8c29.7-48,59.4-96,89.1-143.9
		c1.6-2.6,2.5-5.2,2.4-8.4c-0.2-12-0.1-23.9-0.1-35.9c0-6.7,2.5-10.6,7.6-12c4.8-1.3,9,1,12.4,6.9
		c59.9,104.1,119.8,208.3,179.6,312.4c5.2,9.1,1.7,16.2-8.8,17c-26.2,2-52.5,3.7-78.7,5.5c-29.6,2-59.1,4.1-88.7,6
		c-2.6,0.2-3.4,0.9-3.4,3.5c0.2,5.5,0.2,11,0,16.5c-0.1,2.9,0.7,3.6,3.7,3.4c25.4-2,50.8-3.7,76.2-5.6c28.7-2.2,57.4-4.4,86.2-6.6
		c27.7-2.1,55.5-4,83.2-6.2c6.4-0.5,10.8,1.4,13.6,7.1c0,2,0,4,0,6c-0.3,0.3-0.8,0.6-1,1c-17.3,28.5-34.2,57.3-51.8,85.6
		c-23.1,36.9-56.6,56-100.4,56.1c-79.9,0.1-159.9,0-239.8,0.1c-7.9,0-15.7-0.3-23.3-2c-41.2-9.3-69.9-33.1-84.6-73
		C7,423.6,4.7,412.9,0,403.1C0,400.7,0,398.4,0,396.1z M399.2,407.1c1.6-8.2,4.4-10.5,12.7-11.1c18.6-1.4,37.2-2.8,55.8-4.3
		c2-0.2,4.6,0.5,6-1.7c3.2-5,6.2-10.1,9.5-15.8c-9.1,0.7-17.4,1.3-25.6,1.9c-28.6,2.1-57.1,4.2-85.7,6.4
		c-33.5,2.5-67.1,5.1-100.6,7.6c-28.6,2.1-57.1,4.2-85.7,6.3c-34,2.5-68.1,5.1-102.1,7.7c-18.8,1.4-37.5,2.8-56.3,4.1
		c-3.3,0.2-3.9,1.4-2.8,4.4c1.2,3.3,2.3,6.6,3.1,10c0.7,2.8,2,3.7,4.9,3.4c26.5-2.2,53.1-4.2,79.7-6.3c32.2-2.5,64.4-5.1,96.6-7.6
		c27.6-2.2,55.1-4.2,82.7-6.4c8.4-0.7,11.5,0.9,14.6,8.6c-1.5,8.3-3.5,10.2-12.1,11.2c-1.8,0.2-3.6,0.4-5.5,0.5
		c-36.2,2.8-72.4,5.5-108.6,8.3c-45.6,3.5-91.3,7.1-136.9,10.8c-1.2,0.1-3-0.6-3.6,0.8c-0.7,1.4,0.9,2.3,1.6,3.4
		C60.3,476,86.9,489,119.9,489c79.3,0,158.6,0,237.9,0c34.9,0,62.4-14.2,81.9-43.2c7.2-10.7,13.5-21.9,20.6-33.5
		c-16.5,1.3-32.1,2.6-47.7,3.7C404.4,416.5,401.7,414.5,399.2,407.1z M249.1,48.9c0,1.2,0,2.1,0,3c0,90.6,0,181.2,0,271.8
		c0,0.7,0.1,1.3,0,2c-0.2,1.9,0.6,2.8,2.6,2.5c1.5-0.2,3-0.2,4.5-0.3c47.7-3.3,95.3-6.5,143-9.8c5.5-0.4,5.5-0.3,2.8-5
		C352,226.4,302.1,139.7,252.3,52.9C251.5,51.6,251.1,49.8,249.1,48.9z M229,92.5c-0.3,0-0.7-0.1-1-0.1
		c-50.6,81.8-101.2,163.5-152.2,245.8c2.1,0,3.3,0.1,4.5,0c48-2.7,96.1-5.5,144.1-8.1c4-0.2,4.7-1.8,4.7-5.4
		C229,248.6,229,172.7,229,96.7C229,95.3,229,93.9,229,92.5z"/>
	<path class="st1" d="M399.2,407.1c2.5,7.4,5.2,9.4,13.3,8.9c15.6-1.1,31.2-2.4,47.7-3.7c-7.1,11.6-13.4,22.8-20.6,33.5
		c-19.4,29-47,43.2-81.9,43.2c-79.3,0-158.6,0-237.9,0c-33,0-59.6-13-79.1-39.8c-0.7-1-2.3-2-1.6-3.4c0.7-1.4,2.4-0.7,3.6-0.8
		c45.6-3.6,91.3-7.2,136.9-10.8c36.2-2.8,72.4-5.6,108.6-8.3c1.8-0.1,3.7-0.3,5.5-0.5c8.6-1,10.5-2.8,12.1-11.2
		c10.2-0.7,20.4-1.5,30.6-2.2c1.7,6.1,4.8,9,9.7,9c5.8,0.1,9.3-3.6,10.6-10.8C370.9,409.2,385,408.1,399.2,407.1z"/>
	<path class="st1" d="M249.1,48.9c2,1,2.4,2.7,3.2,4c49.9,86.7,99.8,173.5,149.6,260.2c2.7,4.7,2.7,4.6-2.8,5
		c-47.7,3.2-95.3,6.5-143,9.8c-1.5,0.1-3,0.1-4.5,0.3c-2,0.2-2.8-0.6-2.6-2.5c0.1-0.7,0-1.3,0-2c0-90.6,0-181.2,0-271.8
		C249.1,51,249.1,50,249.1,48.9z"/>
	<path class="st2" d="M229,92.5c0,1.4,0,2.8,0,4.2c0,75.9,0,151.9,0.1,227.8c0,3.6-0.7,5.2-4.7,5.4c-48,2.6-96.1,5.4-144.1,8.1
		c-1.2,0.1-2.3,0-4.5,0c50.9-82.2,101.5-164,152.2-245.8C228.4,92.4,228.7,92.5,229,92.5z"/>
	<path class="st2" d="M399.2,407.1c-14.2,1-28.4,2.1-42.5,3.1c-2.4-6.6-6.2-9.6-11.3-8.9c-5.3,0.7-8,4-8.9,10.7
		c-10.2,0.7-20.4,1.5-30.6,2.2c-3.1-7.7-6.2-9.3-14.6-8.6c-27.5,2.2-55.1,4.3-82.7,6.4c-32.2,2.5-64.4,5.1-96.6,7.6
		c-26.6,2.1-53.1,4.1-79.7,6.3c-2.9,0.2-4.2-0.6-4.9-3.4c-0.8-3.4-1.9-6.7-3.1-10c-1.1-3-0.5-4.1,2.8-4.4
		c18.8-1.3,37.5-2.7,56.3-4.1c34-2.6,68.1-5.1,102.1-7.7c28.6-2.1,57.1-4.2,85.7-6.3c33.5-2.5,67.1-5.1,100.6-7.6
		c28.6-2.1,57.1-4.2,85.7-6.4c8.3-0.6,16.5-1.2,25.6-1.9c-3.4,5.6-6.4,10.8-9.5,15.8c-1.4,2.2-4,1.5-6,1.7
		c-18.6,1.5-37.2,3-55.8,4.3C403.6,396.6,400.8,398.9,399.2,407.1z"/>
	<path class="st3" d="M336.4,412c0.9-6.7,3.7-10.1,8.9-10.7c5.1-0.7,8.9,2.4,11.3,8.9c-1.2,7.3-4.8,10.9-10.6,10.8
		C341.3,421,338.2,418.1,336.4,412z"/>
</g>
</svg>
