<?xml version="1.0" encoding="utf-8"?>
<!-- Generator: Adobe Illustrator 27.0.0, SVG Export Plug-In . SVG Version: 6.00 Build 0)  -->
<svg version="1.1" id="Capa_1" xmlns="http://www.w3.org/2000/svg" xmlns:xlink="http://www.w3.org/1999/xlink" x="0px" y="0px"
	 viewBox="0 0 427.7 443.6" style="enable-background:new 0 0 427.7 443.6;" xml:space="preserve">
<style type="text/css">
	.st0{fill:#176674;}
	.st1{fill:#2197AC;}
	.st2{fill:#E54F4A;}
	.st3{fill:#269AAE;}
	.st4{fill:#2499AD;}
	.st5{fill:#2B9CB0;}
	.st6{fill:#2CC9E5;}
	.st7{fill:#93E1EF;}
	.st8{fill:#93E2F0;}
	.st9{fill:#92E1EF;}
	.st10{fill:#2CC8E4;}
	.st11{fill:#E4504B;}
</style>
<g>
	<path class="st0" d="M274.2,410.5c1.4,6.6,0.5,8.7-5.5,12c-11.1,6.1-22.3,12.1-33.4,18.3c-2.9,1.6-5.9,2-9.1,2.3
		c-20.2,2.3-37.7-3.6-55.4-13.8C128.1,404.6,84.3,381.7,41,358c-3.3-1.8-5-1.5-7.5,1.2c-6.2,6.6-12.8,12.9-19.2,19.3
		c-2.6,2.6-5.5,4.4-9.3,2.9c-4-1.6-5-4.8-5-8.9c0.1-24.2,0-48.4,0-72.5c0-7.1,2.6-9.7,9.9-9.7c24,0,48,0,72.1,0c4,0,7.3,0.8,9,4.7
		c1.8,4-0.1,7-2.9,9.7c-5.6,5.4-11.1,10.9-17.1,16.9c16,7.1,29.6,17.8,46.6,21.5c36.2,7.9,72.5-19.8,73.1-56.8
		c0.7-43.4,0.2-86.9,0.3-130.3c0-3-1.2-3.3-3.7-3.2c-11.1,0.1-22.3,0.1-33.4,0c-20.1-0.1-39.9-2.9-59.9-4.3
		c-13.2-0.9-26.3-2.2-39.4-3.3c-6.1-0.5-8.7-3-8.7-9c-0.1-9.4-0.1-18.8,0-28.2c0-5.3,2.6-8.3,7.5-8.7c30.1-2.6,60.2-5.1,90.3-7.6
		c1.6-0.1,3.2,0,5.2,0c-2.3-8.1-3.8-15.9-3.7-24.1c0.4-35.2,28.8-65.4,63.9-67.5c36.1-2.2,67.7,23.2,72.8,58.3
		c0.1,0.9,0.5,1.8,0.7,2.7c0,5.1,0,10.1,0,15.2c-1.1,4.9-2.3,9.8-3.4,15c12.9,1.1,25.9,2.1,38.8,3.2c18.9,1.6,37.7,3.1,56.5,4.8
		c4.8,0.4,7.4,3.3,7.5,8.2c0.1,9.9,0.1,19.7,0,29.6c-0.1,4.9-2.7,7.6-7.6,8c-18.5,1.6-37.1,2.9-55.6,4.8c-26,2.6-52,3.3-78.1,2.8
		c-2.8-0.1-3.8,0.5-3.8,3.6c0.1,43-0.3,85.9,0.2,128.9c0.5,41.6,43.6,70.3,82.6,55.1c12.7-4.9,24.3-12.4,37-18.8
		c-5.7-5.7-11.1-11.1-16.5-16.3c-2.9-2.8-5.2-5.7-3.4-10c1.7-4.2,5.3-4.9,9.4-4.9c23.9,0.1,47.7,0,71.6,0c7.5,0,10.1,2.5,10.1,10
		c0,24,0,48,0,72.1c0,4-0.8,7.3-4.8,9c-4.1,1.7-7-0.2-9.7-3c-6.5-6.6-13.1-13-19.5-19.6c-2.1-2.3-3.7-2.4-6.4-0.9
		c-17.9,10-35.9,19.7-53.9,29.5c-6.4,3.5-8.1,3.2-13.5-1.6c-1.3-5.9,1.4-9.5,6.5-12.2c20-10.7,39.9-21.6,59.9-32.3
		c6.5-3.5,8.5-3,13.8,2.3c3.9,3.8,7.7,7.7,12.4,12.4c0-16.6,0-31.9,0-47.1c0-3.2-1.8-3.2-4-2.9c-15,0-29.9,0-46.3,0
		c4,3.9,7,7.1,10.3,9.9c3.4,2.9,4.9,6.5,4.7,10.9c0,0,0,0,0,0c-0.4,0.3-0.8,0.7-1.1,1c-2.3,1.6-4.5,3.6-7,4.9
		c-13.4,7-26.6,14.2-40.3,20.7c-14.1,6.7-29,8.3-44.5,5.5c-6.9-1.3-13.3-4.1-19.9-6c-1-0.7-2-1.6-3.1-2.2
		c-26.3-15.5-39.6-38.5-39.7-69c-0.1-40.8,0-81.7,0-122.5c0-6.1,0-6.1-6.2-5.9c-0.5,0-0.9,0.1-1.4,0.1c-7.6-0.4-7.6-0.4-7.6,7.2
		c0,40.8,0.1,81.6,0,122.5c-0.1,32.4-18.7,59.8-48.7,71.9c-21.7,8.1-42.8,6.9-63.3-3.7c-10.7-5.5-21.4-11-32-16.8
		c-3.8-2.1-8.4-3.3-10.8-7.5c0-0.5-0.1-1-0.8-1l0.1,0c-0.1-3.9,1.5-6.9,4.3-9.6c3.3-3.2,6.9-6.1,9.7-10.3c-15.3,0-29.9,0-44.6,0
		c-3.7-0.8-5,0.5-4.9,4.4c0.3,10,0.1,20,0.1,30c0,4.8,0,9.6,0,14.5c0.4,0.2,0.8,0.4,1.3,0.6c2.4-2.7,4.8-5.4,7.4-8
		C34,337,34,337,46.8,343.8c5.7,3.1,11.4,6.3,17.1,9.4c34.3,18.7,68.5,37.5,102.8,56.1c8.6,4.7,16.9,10,26.1,13.6
		c3.9,3.4,8.3,5.3,13.8,4.9c5.8-0.4,11.7-0.1,17.6-0.1c1.8,0,3.4-0.2,5-1c10.5-5.8,21.1-11.5,31.6-17.3
		C267.4,405.8,268.7,405.8,274.2,410.5z M235.1,61c-3.4-10.3-14-16.7-24.6-15C199.3,47.9,191,57.4,191,68.5
		c-0.1,11.4,8.2,21.1,19.5,22.9c10.6,1.7,21.2-4.7,24.6-15C237.5,71.3,237.4,66.2,235.1,61z M176.1,75.3c-1.3-9.9,0.5-19.2,6-27.7
		c6.2-9.4,15.3-14.3,25.9-17c1.6,0,3.2,0,4.8,0c24.9-0.3,42.9,21.2,38.5,45.7c-1,5.5-3.9,10.1-6.3,15.4c5,0,9.4-0.2,13.9,0.1
		c2.8,0.1,3.9-1.1,4.8-3.5c3.6-9.6,4.9-19.4,2.7-29.4C263,43.2,255,30.7,240.6,22.9c-0.3-0.3-0.6-0.7-1-0.9
		c-20-10.2-39.4-9.1-57.5,4c-17.7,12.7-25.3,34.7-20.2,55.3c2.7,10.8,2.7,10.8,13.8,10.3c2.3,0,4.5,0,7.3,0
		C179.5,86.1,177.5,80.9,176.1,75.3z M145.1,107.1c-0.6,0-1.3-0.1-1.9-0.1c-23.6,1.9-47.1,3.8-70.7,5.9C61,114,61.2,114.2,61,126
		c-0.1,3.8,1.2,4.7,4.8,4.9c9.5,0.5,19,1.6,28.5,2.3c16.9,1.4,33.8,2.7,50.8,4c45.8,0,91.6,0.1,137.4,0.1c9.1-0.7,18.3-1.2,27.4-2
		c14.3-1.2,28.6-2.8,43-3.6c13.8-0.8,14.6-1.2,13.7-14.9c0-0.2,0-0.3,0-0.5c0.1-2-0.8-2.8-2.8-2.9c-8.7-0.6-17.3-1.2-26-1.9
		c-8.7-0.7-17.3-1.5-26-2.2c-9.8-0.8-19.5-1.6-29.3-2.5c-29.7,0-59.5-0.1-89.2-0.1C177.2,107,161.1,107.1,145.1,107.1z"/>
	<path class="st1" d="M264.3,352.5c6.6,2,13,4.8,19.9,6c15.5,2.8,30.4,1.2,44.5-5.5c13.6-6.4,26.9-13.7,40.3-20.7
		c2.5-1.3,4.7-3.2,7-4.9c0.4-0.3,0.8-0.7,1.1-1c0,0,0,0,0,0c11.1-6,20.9-13.9,31.4-20.8c2.3-0.3,4.1-0.4,4,2.9
		c-0.1,15.2,0,30.5,0,47.1c-4.7-4.7-8.5-8.5-12.4-12.4c-5.3-5.3-7.3-5.8-13.8-2.3c-20,10.7-39.9,21.6-59.9,32.3
		c-5.1,2.7-7.8,6.3-6.5,12.2c-4.7,3-9.5,5.7-14.7,7.8c-2.3-0.2-3.2-2.7-5.7-3c-6.6-0.7-9.6,2.9-9.1,11.2c-5.4,3-10.8,5.9-16.1,8.9
		c-5.5-4.7-6.9-4.7-13.4-1.1c-10.5,5.8-21.1,11.5-31.6,17.3c-1.6,0.9-3.3,1-5,1c-5.9,0-11.7-0.3-17.6,0.1c-5.5,0.4-9.8-1.5-13.8-4.9
		c1.1-1.1,2-2.4,3.2-3.4c19-14.9,37.6-30.4,54.2-48C255.8,365.8,260.6,359.6,264.3,352.5z"/>
	<path class="st2" d="M282.5,76.4c0-5.1,0-10.1,0-15.2c25.4,0,50.9-0.2,76.3,0c30.1,0.2,53.5,23.6,53.5,53.7
		c0,13.2,1.2,26.4-0.8,39.5c-3.7,24.1-25.3,43.7-49.8,44.1c-33.7,0.5-67.4,0.2-101.1,0.2c-5.2,0-8.5-3.2-8.5-7.7
		c0-4.6,3.4-7.6,9.1-7.6c31.8,0,63.6,0,95.4,0c24.5,0,40.7-16.1,40.5-40.6c-0.1-11.7,1.3-23.6-0.8-35.2c-3.3-18.1-18.6-30.9-37-31
		C333.7,76.3,308.1,76.4,282.5,76.4z"/>
	<path class="st2" d="M112.8,183.3c18.1,0,36.3,0,54.4,0c5.2,0,8.5,3.2,8.4,7.7c-0.1,4.3-3.3,7.3-8.2,7.5c-1.3,0.1-2.5,0-3.8,0
		c-34,0-68.1-0.1-102.1,0c-16.9,0-30.4,13-30.9,29.4c-0.5,17.4,13,31.5,30.6,31.6c21.6,0.1,43.3,0,64.9,0c1.3,0,2.6-0.1,3.8,0
		c4.5,0.3,7.6,3.5,7.5,7.7c0,4.2-3.1,7.4-7.7,7.5c-7.8,0.2-15.6,0.1-23.4,0.1c-14.8,0-29.6,0.1-44.4,0
		c-26.3-0.1-46.8-20.3-46.7-45.9c0-25.6,20.6-45.6,46.9-45.7C79.1,183.3,96,183.3,112.8,183.3z"/>
	<path class="st3" d="M72.6,396.2c0,6.4-5.7,10.4-10.7,7.7c-9.5-5-18.9-10.4-28.1-16c-3.5-2.1-4.2-5.8-2.2-9.6
		c1.9-3.6,6-5.3,9.7-3.2c9.5,5.1,18.8,10.6,28.1,16C71.6,392.3,72.4,394.6,72.6,396.2z"/>
	<path class="st4" d="M267.3,236.7c0,4.9,0.1,9.8,0,14.7c-0.1,4.9-3.1,8.1-7.4,8.2c-4.5,0.1-7.7-3.2-7.8-8.3c-0.1-9.7-0.1-19.3,0-29
		c0-5.2,3.2-8.5,7.7-8.4c4.5,0,7.5,3.3,7.6,8.6C267.4,227.2,267.3,232,267.3,236.7z"/>
	<path class="st5" d="M267.3,282.8c-0.1,4.1-3.6,7.5-7.7,7.4c-4.3-0.1-7.8-3.8-7.5-8.1c0.3-4.1,3.8-7.3,8-7.2
		C264.1,275.2,267.4,278.7,267.3,282.8z"/>
	<path class="st5" d="M99.3,412.2c0.1,4.1-3.2,7.6-7.3,7.8c-4.3,0.2-7.9-3.4-7.9-7.7c0-4.1,3.4-7.5,7.6-7.6
		C95.8,404.8,99.2,408.1,99.3,412.2z"/>
	<path class="st0" d="M290.4,401.6c-0.5-8.4,2.6-12,9.1-11.2c2.5,0.3,3.4,2.8,5.7,3c0,0.9,0,1.9,0.1,2.8c0.6,3.7-0.7,6.6-4,8.3
		c-3.3,1.8-6.4,1-9.1-1.5C291.7,402.4,291,402.1,290.4,401.6z"/>
	<path class="st6" d="M264.3,352.5c-3.6,7.1-8.5,13.3-13.9,19.1c-16.7,17.6-35.2,33.1-54.2,48c-1.2,1-2.2,2.3-3.2,3.4
		c-9.2-3.6-17.5-9-26.1-13.6c-34.3-18.6-68.6-37.4-102.8-56.1c-5.7-3.1-11.4-6.3-17.1-9.4C34,337,34,337,23.9,347.1
		c-2.5,2.6-4.9,5.3-7.4,8c-0.4-0.2-0.8-0.4-1.3-0.6c0-4.8,0-9.6,0-14.5c0-10,0.2-20-0.1-30c-0.1-3.9,1.2-5.2,4.9-4.4
		c7.7,6.3,16.3,11.1,24.4,16.8c1.9,1.3,3.6,3.2,6.2,3.1c0,0-0.1,0-0.1,0c0.3,0.3,0.5,0.6,0.8,1c2.4,4.2,6.9,5.4,10.8,7.5
		c10.6,5.8,21.3,11.2,32,16.8c20.6,10.6,41.7,11.8,63.3,3.7c1.5,1.4,3.4,0.9,5,0.6c12.2-1.8,23.4-6.1,32.3-14.9
		c14-13.8,18.6-31.6,18.9-50.4c0.5-45.6,0.2-91.2,0.2-136.9c0.5,0,0.9-0.1,1.4-0.1c6.2-0.1,6.2-0.1,6.2,5.9c0,40.8-0.1,81.7,0,122.5
		c0.1,30.5,13.4,53.5,39.7,69C262.3,350.9,263.2,351.7,264.3,352.5z"/>
	<path class="st6" d="M282.5,137.4c-45.8,0-91.6-0.1-137.4-0.1c0-10.1,0-20.1,0-30.2c16.1-0.1,32.1-0.2,48.2-0.2
		c29.7,0,59.5,0.1,89.2,0.1C282.5,117.2,282.5,127.3,282.5,137.4z"/>
	<path class="st7" d="M145.1,107.1c0,10.1,0,20.1,0,30.2c-16.9-1.3-33.9-2.7-50.8-4c-9.5-0.8-19-1.8-28.5-2.3
		c-3.6-0.2-4.9-1.1-4.8-4.9c0.2-11.9,0-12,11.4-13.1c23.6-2.1,47.1-4,70.7-5.9C143.8,107,144.4,107.1,145.1,107.1z"/>
	<path class="st1" d="M282.5,137.4c0-10.1,0-20.2,0-30.4c9.8,0.8,19.5,1.6,29.3,2.5c8.7,0.7,17.3,1.5,26,2.2
		c8.7,0.7,17.3,1.4,26,1.9c2,0.1,2.9,0.9,2.8,2.9c0,0.2,0,0.3,0,0.5c0.9,13.7,0.2,14.1-13.7,14.9c-14.3,0.8-28.6,2.4-43,3.6
		C300.8,136.2,291.6,136.7,282.5,137.4z"/>
	<path class="st8" d="M213.8,152.9c0,45.6,0.3,91.2-0.2,136.9c-0.2,18.7-4.9,36.6-18.9,50.4c-8.9,8.8-20.1,13.1-32.3,14.9
		c-1.6,0.2-3.5,0.8-5-0.6c30-12.1,48.6-39.4,48.7-71.9c0.1-40.8,0-81.6,0-122.5C206.2,152.5,206.2,152.5,213.8,152.9z"/>
	<path class="st9" d="M208,30.6c-10.6,2.7-19.8,7.6-25.9,17c-5.5,8.5-7.3,17.7-6,27.7c-0.8,5.4-0.2,10.8-0.3,16.2
		c-11.2,0.4-11.2,0.4-13.8-10.3c-5.1-20.6,2.5-42.6,20.2-55.3c18.1-13.1,37.5-14.1,57.5-4c0.4,0.2,0.7,0.6,1,0.9
		c-1.7,0-3.5,0-5.2,0.1C225.7,23.3,216.3,25.2,208,30.6z"/>
	<path class="st10" d="M208,30.6c8.3-5.4,17.7-7.3,27.4-7.7c1.7-0.1,3.5,0,5.2-0.1c14.3,7.9,22.3,20.3,25.7,35.9
		c2.1,10.1,0.9,19.9-2.7,29.4c-0.9,2.4-2,3.6-4.8,3.5c-4.4-0.2-8.9-0.1-13.9-0.1c2.4-5.3,5.3-9.9,6.3-15.4
		c4.5-24.4-13.6-46-38.5-45.7C211.2,30.6,209.6,30.6,208,30.6z"/>
	<path class="st6" d="M408.4,305.7c-10.4,6.9-20.3,14.8-31.4,20.8c0.2-4.4-1.2-7.9-4.7-10.9c-3.3-2.8-6.3-6.1-10.3-9.9
		C378.4,305.7,393.4,305.7,408.4,305.7z"/>
	<path class="st8" d="M50.7,325.5c-2.6,0-4.3-1.8-6.2-3.1c-8.1-5.6-16.7-10.5-24.4-16.8c14.7,0,29.4,0,44.6,0
		c-2.8,4.2-6.4,7.1-9.7,10.3C52.2,318.7,50.6,321.6,50.7,325.5z"/>
	<path class="st11" d="M235.1,76.5c-6.6,0-13.3,0-19.9-0.1c-5.5-0.1-8.9-3-8.9-7.6c0-4.6,3.4-7.6,8.9-7.6c6.6-0.1,13.3-0.1,19.9-0.1
		C237.4,66.2,237.5,71.3,235.1,76.5z"/>
	<path class="st10" d="M175.7,91.6c0.1-5.4-0.4-10.8,0.3-16.2c1.4,5.5,3.4,10.8,7,16.2C180.3,91.6,178,91.6,175.7,91.6z"/>
	<path class="st8" d="M51.4,326.5c-0.3-0.3-0.5-0.6-0.8-1C51.3,325.5,51.4,326,51.4,326.5z"/>
	<path class="st6" d="M377.1,326.5c-0.4,0.3-0.8,0.7-1.1,1C376.3,327.1,376.7,326.8,377.1,326.5z"/>
</g>
</svg>
