<?xml version="1.0" encoding="utf-8"?>
<!-- Generator: Adobe Illustrator 27.0.0, SVG Export Plug-In . SVG Version: 6.00 Build 0)  -->
<svg version="1.1" id="Capa_1" xmlns="http://www.w3.org/2000/svg" xmlns:xlink="http://www.w3.org/1999/xlink" x="0px" y="0px"
	 viewBox="0 0 457.9 399.7" style="enable-background:new 0 0 457.9 399.7;" xml:space="preserve">
<style type="text/css">
	.st0{fill:#020202;}
	.st1{fill:#FCEED5;}
	.st2{fill:#F7F3F1;}
	.st3{fill:#E7A8C9;}
	.st4{fill:#F6F2F0;}
	.st5{fill:#E5E5ED;}
	.st6{fill:#FD7C94;}
	.st7{fill:#E3E3EB;}
	.st8{fill:#E2E2EA;}
	.st9{fill:#FC7B93;}
	.st10{fill:#E7A8C8;}
	.st11{fill:#E6E6EE;}
</style>
<g>
	<path class="st0" d="M0,166.8c0-20.2,0-40.5,0-60.7c0.7-0.2,0.8-0.8,1-1.3C4.6,93.2,12.4,85.9,24.1,83c2-0.5,3-1.8,4.1-3.1
		c17.7-22.1,35.4-44,52.9-66.3C88.4,4.3,97.4,0,109.2,0C189,0.1,268.9,0.1,348.8,0c11.7,0,20.8,4.3,28.1,13.5
		c17.7,22.2,35.7,44.2,53.5,66.3c1.4,1.8,3,2.9,5.3,3.5c8.8,2.3,15.1,7.9,19.3,16c1.1,2.2,1.1,4.8,2.8,6.7c0,20.5,0,41.1,0,61.6
		c-1,0.2-0.9,1-1.1,1.7c-3.3,14.2-10.9,25.5-23.2,33.5c-2,1.3-1.7,2.8-1.7,4.6c0,15.1,0,30.3,0,45.4c0,6.9-2,9.4-8.8,11.3
		c-7-1.6-9-4.1-9.1-11c0-13.1,0-26.2,0-39.3c0-2.4-0.2-3.4-3.1-2.9c-7,1.1-13.9,0.1-20.7-1.8c-12.2-3.6-21.7-10.7-29.2-21
		c-11,14.9-25.5,23.1-43.9,23.2c-18.5,0.1-33-8.3-44-23c-21.9,30-65.2,31.4-88.3,0c-10.9,14.6-25.3,22.9-43.7,22.9
		c-18.5,0.1-33.1-8.3-44.1-23.1c-0.6,0.7-1.1,1.3-1.5,1.9c-12.1,15.2-27.8,22.5-47.2,21.1c-3.7-0.3-4.4,0.3-4.4,3.8
		c0.1,23.8,0.1,47.6,0.1,71.4c0,30.5,0,61-0.1,91.5c0,3,0.6,4.2,3.9,4c6.5-0.3,13.1-0.3,19.7,0c3.9,0.2,5.2-0.7,5.2-5
		c-0.2-41.5-0.1-83-0.1-124.5c0-9.5,2.7-12.3,12.1-12.3c24.3,0,48.6,0,72.9,0c8.9,0,11.7,2.8,11.7,11.8c0,41.8,0,83.6-0.1,125.4
		c0,3.1,0.3,4.6,4.2,4.6c78.8-0.1,157.7-0.1,236.5,0c3.3,0,4.3-0.7,4.3-4.1c-0.2-14.1-0.1-28.3-0.1-42.4c0-7,2.3-9.7,9.1-10.9
		c6.4,1.4,8.8,4.2,8.8,10.8c0,14.2,0.1,28.5-0.1,42.7c0,3.2,0.9,4.1,4,3.9c3.5-0.3,7.2,0.2,10.7-0.1c5.4-0.4,9.2,1.6,11.4,6.5
		c0,1.8,0,3.6,0,5.4c-2.9,4.8-7.2,6.2-12.7,6.2c-144.2-0.1-288.4-0.1-432.6,0c-5.5,0-9.8-1.3-12.7-6.2c0-2.1,0-4.2,0-6.2
		c3.1-4.5,7.4-6.2,12.8-5.6c3.1,0.3,6.3-0.2,9.4,0.1c3.2,0.3,3.9-0.9,3.9-4c-0.1-56.8-0.1-113.5,0-170.3c0-2.4-0.6-3.9-2.8-5.4
		C12,194.5,4.7,184,1.4,170.8C1.1,169.5,1.6,167.7,0,166.8z M151.3,319.8c0-19.5,0-39,0.1-58.4c0-2.5-0.4-3.6-3.3-3.6
		c-18.2,0.2-36.4,0.1-54.5,0c-2.6,0-3.2,0.8-3.2,3.3c0.1,39.1,0.1,78.2,0,117.3c0,2.9,0.9,3.4,3.6,3.4c17.9-0.1,35.8-0.1,53.6,0
		c3.3,0,3.9-1.1,3.8-4C151.2,358.4,151.3,339.1,151.3,319.8z M228.7,82.2c10.3,0,20.6-0.1,30.8,0c2.6,0,3.2-0.6,2.8-3.3
		c-2.6-19.3-5.1-38.6-7.5-57.9c-0.3-2.8-1.5-3.3-4-3.3c-14.7,0.1-29.5,0.2-44.2,0c-3.5-0.1-4.2,1.3-4.5,4.3
		c-2.1,18.6-4.1,37.2-6.6,55.7c-0.6,4.2,0.7,4.6,4.2,4.5C209.4,82.1,219.1,82.2,228.7,82.2z M345.1,82.2c0-0.8,0.1-1.1,0-1.4
		c-11-20.3-22.1-40.6-33.1-60.9c-0.8-1.5-1.8-2.1-3.5-2c-11,0.1-22,0.1-33.1,0c-2.7,0-2.9,1.1-2.6,3.2c0.7,4.6,1.2,9.1,1.8,13.7
		c1.9,14.6,3.8,29.1,5.7,43.7c0.2,1.6-0.3,3.9,2.9,3.8C303.8,82.2,324.3,82.2,345.1,82.2z M112.5,82.2c20.8,0,41.3,0,61.8,0
		c2.1,0,2.7-0.6,3-2.7c2.2-19.3,4.5-38.6,7-57.9c0.4-3.4-0.8-3.9-3.8-3.8c-9.7,0.2-19.4,0.2-29,0c-3.2-0.1-5,0.9-6.6,3.8
		c-10.2,18.9-20.7,37.7-31,56.6C113.3,79.3,112.3,80.3,112.5,82.2z M316.9,150.7c-8.8,0-17.6,0-26.3,0c-9.2,0-9.2,0-8.7,9.2
		c1.2,21.7,20.6,36.9,41.9,32.9c18.1-3.4,30.9-21.7,28.3-40c-0.4-2.8-2.1-2-3.5-2C338,150.7,327.5,150.7,316.9,150.7z M140.7,150.7
		c-7.7,0-15.5,0-23.2,0c-12.7,0-12.7,0-11.1,12.8c2.3,18.9,21.2,32.8,39.9,29.5c19.4-3.4,31.9-20.3,29.9-40.1
		c-0.3-2.7-1.8-2.2-3.3-2.2C162.1,150.7,151.4,150.7,140.7,150.7z M229,150.7c-8.5,0-17,0-25.4,0c-9.9,0-9.9,0-9.5,10.2
		c0.9,20,20.5,35.6,40.2,32.1c19.5-3.5,31.9-20.3,29.8-40.1c-0.3-2.7-1.8-2.2-3.3-2.2C250.1,150.7,239.5,150.7,229,150.7z
		 M405.3,150.7c-8.3,0-16.7,0-25,0c-10.9,0-10.9,0-10.1,11.2c1.4,19.3,20.7,34.5,39.8,31.1c19.2-3.4,30.5-18.1,30.1-39.1
		c0-2.9-0.9-3.4-3.6-3.4C426.1,150.8,415.7,150.7,405.3,150.7z M52.8,150.7c-9.1,0-18.2,0-27.3,0c-7.7,0-7.7,0-7.6,7.6
		c0.3,19.1,15.7,34.9,34.4,35.1c21.5,0.3,38.3-19,35.5-40.6c-0.3-2.6-1.8-2.2-3.4-2.2C73.9,150.7,63.3,150.7,52.8,150.7z
		 M140.4,132.9c10.7,0,21.5-0.1,32.2,0.1c2.6,0,3.7-0.4,3.6-3.3c-0.2-8.8-0.2-17.5,0-26.3c0-2.6-0.8-3.3-3.3-3.2
		c-21.5,0.1-42.9,0.1-64.4,0c-2.3,0-3.1,0.6-3,3c0.1,8.9,0.1,17.8,0,26.8c0,2.6,0.8,3.2,3.3,3.2
		C119.3,132.8,129.8,132.9,140.4,132.9z M317,132.9c10.4,0,20.9-0.1,31.3,0.1c2.7,0,4-0.3,3.9-3.5c-0.2-8.6-0.2-17.2,0-25.9
		c0.1-2.8-0.8-3.5-3.5-3.5c-21.2,0.1-42.3,0.1-63.5,0c-3,0-3.4,1.1-3.4,3.7c0.1,8.6,0.2,17.2,0,25.9c-0.1,2.9,0.9,3.4,3.5,3.4
		C295.9,132.8,306.4,132.9,317,132.9z M228.7,132.9c10.7,0,21.4-0.1,32.2,0c2.2,0,3.2-0.4,3.1-2.9c-0.1-8.9-0.1-17.8,0-26.7
		c0-2.6-0.8-3.3-3.3-3.3c-21.1,0.1-42.3,0.1-63.4,0c-3,0-3.4,1.2-3.3,3.7c0.1,8.6,0.2,17.2,0,25.9c-0.1,2.9,0.9,3.4,3.6,3.4
		C207.9,132.8,218.3,132.9,228.7,132.9z M404.7,132.9c10.7,0,21.4-0.1,32.2,0.1c2.5,0,3.3-0.7,3.2-3.2c-0.2-5.5,0-11-0.1-16.5
		c-0.1-8.3-4.6-13-13-13.1c-17.9-0.1-35.7,0-53.6-0.1c-2.9,0-3.5,1-3.5,3.6c0.1,8.6,0.2,17.2,0,25.9c-0.1,2.8,0.8,3.5,3.5,3.5
		C383.8,132.8,394.3,132.9,404.7,132.9z M53.2,132.9c10.3,0,20.5-0.1,30.8,0c2.5,0,3.7-0.3,3.6-3.3c-0.2-8.8-0.2-17.5,0-26.3
		c0-2.5-0.7-3.3-3.3-3.3c-8.6,0.1-17.3,0.1-25.9,0.1c-8.9,0-17.9-0.1-26.8,0c-8.5,0.1-13,4.7-13.2,12.9c-0.1,5.5,0.1,11-0.1,16.5
		c-0.1,2.8,0.9,3.5,3.5,3.4C32.4,132.8,42.8,132.9,53.2,132.9z M408.6,82.2c-0.2-0.8-0.2-1.1-0.3-1.3
		c-15.8-19.5-31.6-39.1-47.4-58.6c-2.5-3.1-5.9-4.4-9.8-4.4c-5.5,0-11,0.1-16.5-0.1c-2.6-0.1-3.2,0.5-1.8,2.9
		c10.8,19.8,21.6,39.6,32.4,59.4c0.8,1.5,1.8,2.1,3.5,2.1C381.8,82.2,395,82.2,408.6,82.2z M49.4,82.2c13.9,0,26.7-0.1,39.5,0.1
		c2.6,0,3.3-1.5,4.2-3.2c10.6-19.2,21.2-38.5,31.8-57.7c0.5-1,1.6-1.9,0.8-3.4c-5.7,0-11.5,0.1-17.3,0C103,17.8,99,19.7,95.7,24
		C82.2,41.1,68.5,58.2,54.8,75.2C53.2,77.3,51.6,79.4,49.4,82.2z"/>
	<path class="st1" d="M423,264.2c0,6.7,0,13.3,0,20c-6.1,1.1-9,4-9,9c0,5,2.9,7.8,9,8.9c0,7.5,0,14.9,0,22.4
		c-6.8,1.2-9.1,3.8-9.1,10.9c0,14.1-0.1,28.3,0.1,42.4c0.1,3.4-1,4.1-4.3,4.1c-78.8-0.1-157.7-0.1-236.5,0c-3.9,0-4.2-1.5-4.2-4.6
		c0.1-41.8,0.1-83.6,0.1-125.4c0-9-2.8-11.8-11.7-11.8c-24.3,0-48.6,0-72.9,0c-9.4,0-12.1,2.8-12.1,12.3c0,41.5-0.1,83,0.1,124.5
		c0,4.2-1.3,5.2-5.2,5c-6.5-0.3-13.1-0.3-19.7,0c-3.3,0.1-3.9-1-3.9-4c0.1-30.5,0.1-61,0.1-91.5c0-23.8,0.1-47.6-0.1-71.4
		c0-3.5,0.7-4.1,4.4-3.8c19.4,1.4,35.1-5.8,47.2-21.1c0.5-0.6,0.9-1.1,1.5-1.9c11.1,14.8,25.6,23.2,44.1,23.1
		c18.3-0.1,32.8-8.3,43.7-22.9c23.1,31.3,66.4,29.9,88.3,0c11,14.7,25.5,23.1,44,23c18.4-0.1,32.8-8.4,43.9-23.2
		c7.4,10.3,17,17.5,29.2,21c6.8,2,13.7,3,20.7,1.8c2.9-0.5,3.1,0.6,3.1,2.9c-0.1,13.1-0.1,26.2,0,39.3
		C414,260.1,416.1,262.6,423,264.2z M237.6,341.7c11.8,0,23.5,0.1,35.3,0c5.3,0,9-3.5,9.3-8.3c0.4-4.7-3-9-8.2-9.3
		c-3.3-0.2-3-1.9-3-4c0-17.7,0-35.4,0-53.1c0-8.3-2.9-11.2-11.3-11.2c-14.4,0-28.9,0-43.3,0c-8.9,0-11.6,2.8-11.6,11.8
		c0,17.5,0,35.1,0,52.6c0,1.4,1.1,3.4-2.1,3.7c-6.2,0.6-9.2,4.2-8.8,9.5c0.4,5.1,4.1,8.2,10.3,8.2
		C215.3,341.8,226.4,341.7,237.6,341.7z M348.6,341.7c11.8,0,23.5,0.1,35.3,0c5.1,0,8.6-3.4,9-8.1c0.4-5-2.7-9.1-7.9-9.5
		c-3.1-0.2-3.1-1.5-3.1-3.8c0.1-17.7,0-35.4,0-53.1c0-8.4-2.9-11.4-11.2-11.4c-14.6,0-29.2,0-43.8,0c-8.6,0-11.3,2.9-11.3,11.6
		c0,17.7,0,35.4,0,53.1c0,1.7,0.4,3.2-2.5,3.5c-5.7,0.5-9,4.5-8.7,9.3c0.4,5.1,4.2,8.3,10.2,8.4C326,341.8,337.3,341.7,348.6,341.7z
		"/>
	<path class="st2" d="M151.3,319.8c0,19.3-0.1,38.7,0.1,58c0,3-0.6,4.1-3.8,4c-17.9-0.2-35.8-0.1-53.6,0c-2.6,0-3.6-0.5-3.6-3.4
		c0.1-39.1,0.1-78.2,0-117.3c0-2.4,0.5-3.3,3.2-3.3c18.2,0.1,36.4,0.1,54.5,0c3,0,3.3,1,3.3,3.6
		C151.2,280.8,151.3,300.3,151.3,319.8z M108.9,329.3c4.8,0.1,8.8-3.7,9-8.5c0.2-4.8-3.7-8.9-8.5-8.9c-5,0-9.1,3.7-9.3,8.3
		C99.9,325.3,103.8,329.3,108.9,329.3z"/>
	<path class="st3" d="M228.7,82.2c-9.7,0-19.4-0.1-29,0.1c-3.5,0.1-4.8-0.3-4.2-4.5c2.5-18.5,4.6-37.1,6.6-55.7
		c0.3-3,1.1-4.3,4.5-4.3c14.7,0.2,29.5,0.1,44.2,0c2.5,0,3.7,0.5,4,3.3c2.4,19.3,4.8,38.6,7.5,57.9c0.4,2.7-0.2,3.3-2.8,3.3
		C249.3,82.2,239,82.2,228.7,82.2z"/>
	<path class="st4" d="M345.1,82.2c-20.8,0-41.3-0.1-61.9,0.1c-3.2,0-2.7-2.2-2.9-3.8c-2-14.6-3.8-29.1-5.7-43.7
		c-0.6-4.6-1.2-9.1-1.8-13.7c-0.3-2.1-0.1-3.3,2.6-3.2c11,0.2,22,0.1,33.1,0c1.7,0,2.7,0.6,3.5,2c11,20.3,22.1,40.6,33.1,60.9
		C345.2,81.1,345.1,81.4,345.1,82.2z"/>
	<path class="st4" d="M112.5,82.2c-0.2-2,0.8-3,1.4-4.1c10.3-18.9,20.8-37.6,31-56.6c1.6-2.9,3.3-3.8,6.6-3.8c9.7,0.2,19.4,0.2,29,0
		c3-0.1,4.2,0.4,3.8,3.8c-2.5,19.3-4.8,38.6-7,57.9c-0.2,2.1-0.9,2.7-3,2.7C153.8,82.2,133.3,82.2,112.5,82.2z"/>
	<path class="st5" d="M316.9,150.7c10.6,0,21.1,0,31.7,0c1.4,0,3.1-0.8,3.5,2c2.6,18.4-10.2,36.6-28.3,40
		c-21.4,4-40.7-11.2-41.9-32.9c-0.5-9.2-0.5-9.2,8.7-9.2C299.4,150.7,308.2,150.7,316.9,150.7z"/>
	<path class="st5" d="M140.7,150.7c10.7,0,21.4,0,32.2,0c1.5,0,3-0.5,3.3,2.2c1.9,19.9-10.5,36.7-29.9,40.1
		c-18.7,3.3-37.5-10.7-39.9-29.5c-1.6-12.8-1.6-12.8,11.1-12.8C125.2,150.7,132.9,150.7,140.7,150.7z"/>
	<path class="st6" d="M229,150.7c10.6,0,21.1,0,31.7,0c1.5,0,3.1-0.5,3.3,2.2c2.1,19.8-10.3,36.7-29.8,40.1
		c-19.7,3.5-39.3-12.2-40.2-32.1c-0.5-10.2-0.5-10.2,9.5-10.2C212,150.7,220.5,150.7,229,150.7z"/>
	<path class="st6" d="M405.3,150.7c10.4,0,20.8,0.1,31.2-0.1c2.6,0,3.5,0.5,3.6,3.4c0.3,20.9-10.9,35.7-30.1,39.1
		c-19,3.4-38.4-11.8-39.8-31.1c-0.8-11.2-0.8-11.2,10.1-11.2C388.6,150.7,397,150.7,405.3,150.7z"/>
	<path class="st6" d="M52.8,150.7c10.6,0,21.1,0,31.7,0c1.5,0,3-0.5,3.4,2.2c2.8,21.6-14.1,40.9-35.5,40.6
		c-18.7-0.3-34.2-16-34.4-35.1c-0.1-7.6-0.1-7.6,7.6-7.6C34.6,150.7,43.7,150.7,52.8,150.7z"/>
	<path class="st7" d="M140.4,132.9c-10.6,0-21.2-0.1-31.7,0.1c-2.5,0-3.3-0.6-3.3-3.2c0.2-8.9,0.1-17.8,0-26.8c0-2.4,0.7-3,3-3
		c21.5,0.1,42.9,0.1,64.4,0c2.5,0,3.3,0.7,3.3,3.2c-0.1,8.8-0.2,17.5,0,26.3c0.1,2.9-1,3.4-3.6,3.3
		C161.9,132.8,151.1,132.9,140.4,132.9z"/>
	<path class="st8" d="M317,132.9c-10.6,0-21.2-0.1-31.7,0.1c-2.7,0-3.6-0.6-3.5-3.4c0.2-8.6,0.2-17.2,0-25.9c0-2.5,0.4-3.7,3.4-3.7
		c21.2,0.1,42.3,0.1,63.5,0c2.7,0,3.6,0.8,3.5,3.5c-0.2,8.6-0.2,17.2,0,25.9c0.1,3.2-1.2,3.6-3.9,3.5
		C337.9,132.8,327.4,132.9,317,132.9z"/>
	<path class="st9" d="M228.7,132.9c-10.4,0-20.8-0.1-31.3,0.1c-2.6,0-3.6-0.5-3.6-3.4c0.2-8.6,0.1-17.2,0-25.9
		c0-2.5,0.3-3.7,3.3-3.7c21.1,0.1,42.3,0.1,63.4,0c2.5,0,3.3,0.7,3.3,3.3c-0.1,8.9-0.1,17.8,0,26.7c0,2.5-0.9,2.9-3.1,2.9
		C250.2,132.8,239.4,132.9,228.7,132.9z"/>
	<path class="st9" d="M404.7,132.9c-10.4,0-20.8-0.1-31.3,0.1c-2.7,0-3.6-0.7-3.5-3.5c0.2-8.6,0.1-17.2,0-25.9
		c0-2.6,0.6-3.6,3.5-3.6c17.9,0.1,35.7,0,53.6,0.1c8.4,0.1,12.9,4.9,13,13.1c0.1,5.5-0.1,11,0.1,16.5c0.1,2.6-0.7,3.2-3.2,3.2
		C426.1,132.8,415.4,132.9,404.7,132.9z"/>
	<path class="st9" d="M53.2,132.9c-10.4,0-20.8-0.1-31.3,0.1c-2.7,0-3.7-0.6-3.5-3.4c0.2-5.5,0-11,0.1-16.5
		c0.1-8.3,4.7-12.8,13.2-12.9c8.9-0.1,17.9,0,26.8,0c8.6,0,17.3,0.1,25.9-0.1c2.6,0,3.3,0.8,3.3,3.3c-0.1,8.8-0.2,17.5,0,26.3
		c0.1,3-1.1,3.3-3.6,3.3C73.8,132.8,63.5,132.9,53.2,132.9z"/>
	<path class="st10" d="M408.6,82.2c-13.6,0-26.8,0-40,0c-1.7,0-2.7-0.6-3.5-2.1c-10.8-19.8-21.5-39.6-32.4-59.4
		c-1.3-2.5-0.7-3,1.8-2.9c5.5,0.1,11,0,16.5,0.1c3.9,0,7.3,1.3,9.8,4.4c15.8,19.5,31.6,39,47.4,58.6
		C408.4,81.1,408.4,81.4,408.6,82.2z"/>
	<path class="st10" d="M49.4,82.2c2.2-2.9,3.8-4.9,5.4-7C68.5,58.2,82.2,41.1,95.7,24c3.3-4.2,7.3-6.2,12.7-6.1
		c5.8,0.1,11.6,0,17.3,0c0.8,1.6-0.3,2.5-0.8,3.4C114.2,40.6,103.6,59.8,93,79.1c-0.9,1.7-1.6,3.3-4.2,3.2
		C76,82.2,63.2,82.2,49.4,82.2z"/>
	<path class="st0" d="M423.1,302c-6.1-1.1-9-4-9-8.9c0-5,2.9-7.8,9-9c5.8,1.3,8.8,4.4,8.8,9C431.8,297.7,428.8,300.8,423.1,302z"/>
	<path class="st0" d="M237.6,341.7c-11.2,0-22.3,0-33.5,0c-6.2,0-9.9-3-10.3-8.2c-0.4-5.3,2.6-8.9,8.8-9.5c3.2-0.3,2.1-2.3,2.1-3.7
		c0.1-17.5,0-35.1,0-52.6c0-9,2.8-11.8,11.6-11.8c14.4,0,28.9,0,43.3,0c8.4,0,11.3,2.9,11.3,11.2c0,17.7,0,35.4,0,53.1
		c0,2.1-0.3,3.8,3,4c5.2,0.4,8.5,4.6,8.2,9.3c-0.4,4.8-4.1,8.3-9.3,8.3C261.2,341.8,249.4,341.7,237.6,341.7z M222.7,298.9
		c0,7.4,0.1,14.8,0,22.3c0,2.1,0.5,2.8,2.7,2.8c8.5-0.1,16.9-0.1,25.4,0c2,0,2.5-0.6,2.5-2.5c-0.1-15-0.1-30,0-45
		c0-2.6-1.1-2.8-3.2-2.8c-8.2,0.1-16.4,0.1-24.5,0c-2.4,0-3,0.7-2.9,3C222.8,284.1,222.7,291.5,222.7,298.9z"/>
	<path class="st0" d="M348.6,341.7c-11.3,0-22.6,0-34,0c-6,0-9.8-3.3-10.2-8.4c-0.3-4.9,3-8.8,8.7-9.3c2.9-0.3,2.5-1.8,2.5-3.5
		c0-17.7,0-35.4,0-53.1c0-8.8,2.8-11.6,11.3-11.6c14.6,0,29.2,0,43.8,0c8.3,0,11.2,3,11.2,11.4c0,17.7,0,35.4,0,53.1
		c0,2.3,0,3.6,3.1,3.8c5.2,0.3,8.3,4.5,7.9,9.5c-0.4,4.7-3.9,8.1-9,8.1C372.2,341.8,360.4,341.7,348.6,341.7z M364,299.1
		c0-7.6-0.1-15.1,0-22.7c0-2-0.5-2.8-2.7-2.8c-8.3,0.1-16.7,0.1-25,0c-2.4,0-3,0.7-3,3c0.1,14.8,0.1,29.7,0,44.5
		c0,2.1,0.5,2.8,2.7,2.8c8.3-0.1,16.7-0.1,25,0c2.4,0,3-0.7,2.9-3C363.9,313.7,364,306.4,364,299.1z"/>
	<path class="st0" d="M108.9,329.3c-5.1-0.1-8.9-4.1-8.8-9.2c0.1-4.6,4.3-8.3,9.3-8.3c4.8,0,8.7,4.1,8.5,8.9
		C117.7,325.6,113.7,329.4,108.9,329.3z"/>
	<path class="st11" d="M222.7,298.9c0-7.4,0.1-14.8-0.1-22.3c0-2.3,0.5-3.1,2.9-3c8.2,0.1,16.4,0.1,24.5,0c2.1,0,3.2,0.2,3.2,2.8
		c-0.1,15-0.1,30,0,45c0,1.9-0.5,2.5-2.5,2.5c-8.5-0.1-16.9-0.1-25.4,0c-2.2,0-2.7-0.7-2.7-2.8C222.8,313.7,222.7,306.3,222.7,298.9
		z"/>
	<path class="st11" d="M364,299.1c0,7.3-0.1,14.5,0.1,21.8c0,2.3-0.6,3-2.9,3c-8.3-0.1-16.7-0.1-25,0c-2.2,0-2.7-0.7-2.7-2.8
		c0.1-14.8,0.1-29.7,0-44.5c0-2.3,0.6-3.1,3-3c8.3,0.1,16.7,0.1,25,0c2.2,0,2.7,0.8,2.7,2.8C364,284,364,291.6,364,299.1z"/>
</g>
</svg>
